<?xml version="1.0" standalone="no"?>
<!DOCTYPE svg PUBLIC "-//W3C//DTD SVG 20010904//EN"
 "http://www.w3.org/TR/2001/REC-SVG-20010904/DTD/svg10.dtd">
<svg version="1.0" xmlns="http://www.w3.org/2000/svg"
 width="1181.000000pt" height="1181.000000pt" viewBox="0 0 1181.000000 1181.000000"
 preserveAspectRatio="xMidYMid meet">

<g transform="translate(0.000000,1181.000000) scale(0.100000,-0.100000)"
fill="#000000" stroke="none">
<path d="M5575 10729 c-818 -57 -1620 -326 -2310 -777 -787 -513 -1414 -1254
-1792 -2117 l-52 -120 60 -11 c49 -9 69 -19 101 -50 22 -22 43 -47 47 -58 5
-14 17 5 45 75 62 151 200 422 297 584 1105 1840 3323 2672 5359 2009 1393
-453 2491 -1551 2944 -2944 114 -349 190 -735 212 -1070 3 -61 12 -114 20
-127 17 -27 19 -146 4 -190 -6 -17 -10 -62 -8 -101 l3 -71 124 122 123 121
-11 186 c-85 1322 -686 2531 -1681 3384 -964 826 -2222 1242 -3485 1155z"/>
<path d="M5921 10322 c-11 -20 -426 -920 -438 -949 -4 -10 11 -13 55 -13 l60
0 57 130 58 130 181 0 c100 0 190 -3 202 -6 16 -4 32 -34 69 -127 26 -67 55
-128 63 -134 9 -7 38 -13 65 -13 43 0 48 2 42 18 -3 9 -92 226 -197 482 -105
256 -194 474 -198 485 -7 19 -7 19 -19 -3z m78 -417 c38 -98 69 -181 67 -182
-2 -2 -71 -2 -153 -1 l-150 3 80 182 c44 101 82 182 83 180 1 -1 34 -83 73
-182z"/>
<path d="M5041 10214 c-145 -29 -265 -55 -267 -56 -1 -2 2 -25 8 -51 9 -43 13
-48 31 -44 65 16 198 39 201 36 2 -2 39 -177 81 -389 42 -212 79 -396 82 -408
5 -22 9 -23 52 -17 25 4 49 10 53 13 3 4 -30 187 -73 407 -43 220 -79 405 -79
411 0 6 44 19 98 29 128 24 124 22 117 59 -11 55 -16 66 -28 65 -7 -1 -131
-25 -276 -55z"/>
<path d="M6661 10211 c-134 -511 -163 -638 -158 -696 8 -108 79 -208 184 -260
81 -40 202 -47 284 -16 73 28 138 85 167 147 13 27 60 194 106 371 l82 322
-51 14 c-45 13 -51 13 -57 -2 -4 -9 -41 -151 -83 -316 -42 -165 -86 -320 -98
-345 -62 -121 -236 -147 -348 -52 -48 41 -78 101 -79 154 0 20 36 179 81 354
44 174 78 322 76 328 -3 7 -26 17 -51 23 l-46 10 -9 -36z"/>
<path d="M4285 9997 c-62 -21 -97 -42 -137 -84 -72 -75 -88 -174 -43 -270 43
-93 137 -132 321 -133 143 -1 198 -22 238 -89 39 -66 12 -184 -51 -229 -90
-62 -188 -53 -259 24 l-33 37 -40 -33 c-23 -17 -41 -35 -41 -40 0 -16 93 -93
137 -112 38 -17 61 -20 122 -16 94 6 161 37 219 103 126 143 81 373 -86 435
-43 16 -93 23 -208 29 -82 5 -160 13 -171 20 -92 49 -82 194 17 243 48 24 127
23 165 -2 17 -11 33 -20 37 -20 8 0 58 70 58 82 0 3 -24 18 -53 33 -64 31
-138 39 -192 22z"/>
<path d="M7727 9838 c-160 -290 -408 -771 -401 -777 5 -4 25 -18 46 -30 l36
-22 30 53 c16 29 60 111 97 181 37 70 72 126 79 124 7 -2 22 -94 39 -243 15
-131 30 -244 32 -251 4 -13 104 -67 111 -60 3 2 -9 107 -26 232 -38 286 -38
268 3 259 54 -12 124 -6 169 14 111 49 184 211 144 321 -32 88 -76 128 -238
215 l-86 47 -35 -63z m133 -108 c124 -63 160 -158 99 -256 -49 -81 -137 -96
-247 -44 l-64 30 45 82 c24 46 59 111 77 146 18 34 37 62 42 62 5 0 26 -9 48
-20z"/>
<path d="M3459 9559 c-107 -73 -195 -133 -197 -134 -3 -3 504 -753 522 -773
10 -10 51 14 207 119 107 73 196 134 199 136 7 6 -33 75 -47 80 -7 3 -81 -42
-166 -100 l-155 -104 -102 149 c-56 83 -100 151 -98 152 2 2 71 49 155 105
l152 103 -26 39 c-14 21 -30 39 -35 39 -5 0 -75 -45 -155 -100 -81 -54 -149
-97 -153 -95 -8 5 -150 212 -150 219 0 2 70 53 155 111 100 68 153 110 149
118 -19 33 -46 67 -53 67 -4 0 -95 -59 -202 -131z"/>
<path d="M8346 9015 c-263 -124 -481 -227 -483 -229 -6 -5 69 -75 81 -76 4 0
65 27 134 60 107 52 128 58 141 47 120 -101 277 -243 279 -254 2 -7 -15 -70
-38 -139 l-42 -126 40 -41 c23 -23 43 -39 46 -37 8 10 333 1020 327 1020 -3 0
-222 -101 -485 -225z m261 -150 c-34 -102 -64 -185 -67 -185 -4 0 -197 164
-224 190 -6 6 58 43 165 94 96 47 177 85 181 85 3 1 -21 -82 -55 -184z"/>
<path d="M5630 9168 c-923 -77 -1783 -555 -2346 -1304 -46 -61 -84 -117 -84
-122 0 -6 10 -27 23 -45 12 -19 27 -42 32 -52 9 -15 17 -8 56 51 135 202 422
510 629 674 740 586 1680 812 2605 625 481 -97 939 -311 1335 -625 135 -106
394 -365 499 -499 46 -57 114 -152 153 -210 39 -58 72 -107 73 -109 1 -2 32 0
68 4 l65 7 -40 66 c-196 322 -504 656 -824 897 -638 479 -1442 709 -2244 642z"/>
<path d="M2872 9035 c-55 -17 -138 -81 -213 -164 l-59 -66 326 -320 c180 -176
333 -324 341 -328 10 -6 24 2 49 30 l34 38 -148 142 c-97 93 -144 145 -137
151 7 7 95 -4 257 -32 l247 -43 46 47 47 47 -34 6 c-18 4 -123 20 -233 37
-273 42 -250 35 -227 68 70 100 55 220 -38 314 -80 80 -162 103 -258 73z m138
-114 c19 -10 48 -37 64 -59 52 -73 33 -163 -51 -244 l-39 -38 -117 118 -117
118 47 46 c83 79 144 96 213 59z"/>
<path d="M9005 8379 c-214 -138 -396 -254 -404 -258 -16 -10 -9 -36 21 -74
l23 -28 298 191 c165 106 300 190 302 188 3 -3 -229 -976 -240 -1005 -2 -7 -1
-13 4 -13 13 0 805 509 815 523 9 13 -31 87 -47 87 -4 0 -141 -85 -304 -190
-163 -104 -298 -188 -300 -186 -2 2 51 227 117 501 66 274 120 502 120 507 0
4 -3 8 -7 8 -5 -1 -183 -113 -398 -251z"/>
<path d="M5465 7796 c-118 -19 -191 -43 -212 -70 -11 -13 -36 -75 -56 -139
-46 -142 -176 -401 -297 -592 -86 -136 -93 -144 -128 -149 -20 -3 -93 -13
-161 -21 -69 -9 -128 -18 -133 -21 -10 -7 -11 -121 0 -128 4 -2 61 2 126 11
64 8 120 13 122 10 3 -2 -46 -92 -107 -198 -179 -310 -439 -772 -436 -776 2
-2 29 11 60 28 81 44 200 85 287 99 41 6 85 13 96 16 16 3 45 45 109 161 127
229 425 724 439 728 6 3 67 11 136 20 69 8 140 17 158 20 l32 6 0 68 0 67
-102 -13 c-165 -21 -161 -27 -78 105 102 164 236 401 291 517 52 108 101 244
93 257 -7 12 -147 8 -239 -6z"/>
<path d="M2560 7745 c-205 -33 -479 -139 -687 -266 -164 -101 -328 -249 -435
-393 -65 -87 -140 -234 -159 -309 -6 -27 -18 -51 -25 -54 -16 -6 -125 29 -209
67 -75 33 -146 109 -174 186 -25 66 -26 100 -5 174 30 109 125 203 264 262 72
31 81 32 218 34 123 1 146 4 163 20 30 27 23 90 -13 117 -56 42 -271 13 -476
-62 -128 -48 -245 -134 -317 -236 -59 -83 -74 -116 -91 -197 -54 -259 166
-464 531 -494 47 -4 89 -12 94 -18 4 -6 18 -42 31 -81 12 -38 30 -84 40 -101
l18 -32 -96 -42 c-297 -130 -448 -228 -641 -415 -159 -155 -264 -293 -346
-460 -173 -348 -180 -645 -24 -913 19 -31 68 -92 110 -135 62 -63 93 -85 160
-116 106 -49 187 -69 315 -77 401 -26 870 180 1269 558 l83 78 -2 -107 c-1
-123 22 -209 75 -283 88 -121 258 -98 454 62 79 65 244 229 340 340 l50 56 0
-126 c0 -145 10 -183 60 -232 28 -27 44 -34 87 -37 46 -4 64 1 138 37 46 23
112 61 145 85 70 50 222 204 284 288 24 31 45 57 46 57 1 0 -1 -19 -6 -42 -26
-140 13 -250 106 -297 42 -22 63 -26 140 -26 86 0 93 2 165 40 221 118 530
413 768 736 177 241 353 537 339 574 -4 9 -11 13 -17 10 -6 -3 -56 -75 -112
-158 -56 -84 -149 -217 -207 -297 -376 -517 -555 -694 -684 -677 -50 7 -87 44
-87 87 0 65 96 323 191 511 l49 99 -34 0 c-47 0 -196 -44 -264 -79 -62 -31
-160 -102 -205 -147 -16 -16 -52 -68 -80 -116 -109 -183 -261 -364 -364 -432
-57 -38 -106 -34 -113 9 -16 85 38 237 158 444 113 194 182 323 322 596 68
132 158 306 202 388 43 81 78 149 78 150 0 9 -386 -46 -393 -56 -5 -7 -26 -45
-48 -85 l-41 -74 -29 47 c-42 66 -97 89 -198 83 -94 -6 -178 -38 -319 -121
-315 -186 -607 -499 -816 -874 -48 -86 -73 -118 -154 -194 -289 -273 -634
-460 -936 -505 -256 -39 -459 43 -563 226 -49 86 -74 174 -80 282 -13 220 61
448 221 683 109 161 337 367 501 455 52 27 67 31 112 27 29 -3 88 -22 135 -43
82 -37 85 -38 235 -42 116 -3 168 -1 225 12 75 17 176 60 215 93 38 33 73 94
73 131 0 45 -57 102 -126 126 -68 23 -216 21 -334 -5 -131 -29 -196 -34 -226
-19 -49 27 -39 80 18 99 18 6 78 16 133 22 174 19 335 59 572 145 270 96 442
199 598 358 145 147 206 263 207 391 1 125 -71 204 -210 234 -70 15 -286 12
-392 -4z m236 -136 c52 -24 84 -83 84 -150 0 -73 -41 -142 -149 -250 -206
-205 -505 -357 -851 -433 -140 -30 -230 -42 -230 -29 0 18 57 179 80 223 88
175 339 407 590 547 183 102 379 140 476 92z m-873 -1220 c53 -28 50 -62 -8
-85 -58 -22 -113 -14 -172 24 l-46 30 54 16 c105 29 139 32 172 15z m1634
-233 c26 -22 28 -30 28 -93 -1 -121 -84 -323 -251 -605 -38 -65 -103 -175
-144 -245 -145 -250 -356 -499 -470 -555 -159 -80 -245 12 -195 207 51 195
367 744 569 988 226 275 379 375 463 303z"/>
<path d="M9933 7548 c-18 -6 -33 -14 -33 -17 0 -4 16 -54 35 -111 19 -57 34
-104 32 -105 -1 -1 -181 -62 -399 -134 -219 -73 -398 -136 -398 -140 0 -4 7
-28 16 -54 l15 -46 396 135 c217 74 398 134 402 134 4 0 22 -47 41 -105 19
-58 39 -105 45 -105 12 0 77 20 83 26 2 1 -36 122 -84 268 -65 196 -93 266
-104 265 -8 -1 -30 -6 -47 -11z"/>
<path d="M8688 7453 c-46 -7 -337 -157 -443 -228 -141 -95 -201 -143 -350
-276 -429 -383 -703 -739 -1305 -1694 -141 -224 -343 -525 -338 -505 2 8 40
128 85 265 83 252 159 507 207 690 33 123 166 696 166 713 0 18 128 358 161
429 39 83 109 173 172 223 101 80 105 146 7 120 -116 -31 -353 -255 -558 -527
-169 -225 -292 -409 -722 -1078 -613 -954 -775 -1172 -1052 -1410 -424 -365
-848 -475 -1076 -279 -111 94 -156 328 -117 602 8 57 17 108 20 113 10 15 -2
10 -48 -21 -25 -16 -79 -46 -120 -66 l-75 -35 -22 -80 c-53 -199 -67 -415 -34
-562 45 -206 186 -373 369 -438 82 -29 257 -29 365 -1 261 69 467 198 721 452
301 300 408 439 692 890 112 179 241 384 287 455 110 172 449 715 490 785 41
70 121 183 126 178 2 -3 -16 -49 -40 -104 -104 -236 -187 -503 -317 -1019
-117 -461 -207 -741 -296 -920 -40 -81 -63 -116 -167 -255 -21 -28 -27 -45
-22 -63 16 -66 76 -36 272 137 225 199 380 382 636 751 111 159 431 657 576
895 191 313 297 466 466 668 95 114 337 374 343 369 2 -3 -38 -60 -90 -128
-475 -626 -819 -1238 -987 -1756 -80 -245 -101 -336 -107 -453 -9 -174 24
-263 126 -335 39 -28 49 -30 124 -29 61 0 97 6 139 23 119 47 259 162 410 337
l72 84 13 -51 c42 -163 150 -253 334 -279 297 -42 682 182 1018 594 111 136
267 404 326 560 71 188 95 397 59 516 -24 80 -99 152 -189 179 -192 59 -430
-4 -702 -186 -140 -94 -217 -159 -347 -293 -252 -262 -441 -577 -491 -818 -13
-64 -17 -70 -93 -144 -91 -87 -164 -129 -230 -132 -41 -1 -48 2 -68 31 -41 61
-42 151 -2 323 50 222 104 359 298 755 369 757 471 929 843 1417 231 304 302
373 461 454 135 69 166 90 166 113 0 43 -50 58 -142 44z m167 -1673 c36 -14
55 -65 55 -150 0 -57 -9 -97 -49 -218 -118 -357 -322 -711 -570 -990 -73 -83
-248 -207 -306 -218 -82 -15 -157 20 -176 85 -13 42 7 184 41 295 127 409 583
1021 872 1170 75 38 92 42 133 26z"/>
<path d="M11410 6235 c-230 -57 -482 -211 -719 -440 -120 -116 -196 -206 -282
-335 -77 -115 -185 -326 -228 -445 -24 -68 -49 -112 -101 -180 -131 -172 -257
-285 -319 -285 -39 0 -56 45 -55 145 0 128 -2 123 287 630 103 181 154 261
300 478 104 155 120 184 121 220 l1 42 -50 -1 c-37 0 -76 -12 -150 -46 -177
-81 -253 -85 -376 -21 -46 24 -75 34 -91 30 -19 -5 -54 -67 -182 -324 -241
-483 -373 -707 -579 -983 -97 -129 -295 -339 -444 -470 -65 -57 -77 -85 -49
-113 9 -8 26 -12 40 -10 64 13 307 245 448 429 154 202 245 349 532 858 62
110 123 208 136 217 23 17 29 17 90 3 60 -14 71 -14 138 1 40 10 75 15 79 12
8 -9 -54 -90 -221 -291 -217 -260 -271 -335 -342 -481 -82 -169 -114 -280
-114 -394 1 -130 28 -179 125 -222 153 -68 389 77 622 380 94 122 93 122 86
79 -7 -47 13 -159 38 -213 65 -139 224 -190 422 -136 179 49 278 119 537 380
318 319 572 649 603 781 7 30 -6 56 -22 45 -7 -4 -80 -97 -162 -207 -342 -454
-541 -653 -753 -754 -132 -63 -224 -55 -260 21 -14 29 -17 56 -14 124 2 71 12
112 53 235 57 170 82 207 155 225 155 40 336 125 505 238 266 179 443 393 477
580 10 53 9 68 -6 107 -10 25 -33 59 -52 76 -32 27 -41 30 -102 29 -37 0 -92
-7 -122 -14z m-10 -130 c41 -49 -47 -259 -170 -402 -86 -101 -280 -276 -361
-325 -63 -38 -156 -74 -166 -64 -6 6 87 161 187 311 94 141 179 245 289 356
122 122 190 161 221 124z"/>
<path d="M4483 5810 c-350 -92 -694 -390 -962 -834 -59 -99 -71 -126 -71 -162
0 -69 24 -60 161 56 9 8 34 47 55 85 132 249 312 438 512 539 79 40 225 76
309 76 164 0 270 -82 310 -240 l9 -35 102 137 c56 75 102 141 102 147 0 28
-56 119 -101 162 -69 67 -133 89 -257 88 -61 0 -123 -7 -169 -19z"/>
<path d="M4990 5317 c-25 -34 -79 -102 -122 -152 -59 -70 -81 -106 -98 -155
-29 -86 -81 -170 -156 -252 -70 -77 -83 -103 -61 -125 20 -21 66 -9 113 28 70
56 209 217 253 294 57 99 108 250 119 348 4 42 6 77 3 77 -3 0 -26 -28 -51
-63z"/>
<path d="M1521 4245 c-41 -19 -89 -40 -108 -47 l-33 -13 64 -150 c250 -594
592 -1102 1046 -1555 545 -544 1165 -928 1890 -1170 1219 -407 2545 -313 3690
260 482 242 875 525 1260 910 310 309 570 647 779 1012 87 152 231 450 295
608 l53 135 -81 8 c-44 5 -100 15 -124 24 -24 8 -44 14 -46 12 -1 -2 -24 -58
-50 -124 -277 -690 -779 -1359 -1383 -1842 -1585 -1268 -3821 -1339 -5490
-176 -712 496 -1309 1241 -1619 2020 -27 68 -53 122 -59 122 -5 -1 -43 -16
-84 -34z"/>
<path d="M8513 4023 l-62 -4 -77 -97 c-103 -129 -364 -389 -494 -492 -463
-367 -974 -582 -1580 -667 -175 -24 -605 -24 -780 0 -507 71 -923 223 -1331
488 l-106 69 -78 -18 -78 -17 109 -76 c256 -178 528 -316 815 -413 1031 -349
2160 -170 3023 478 216 163 455 395 612 597 103 132 121 160 103 157 -8 -1
-42 -3 -76 -5z"/>
<path d="M8322 3434 c-93 -46 -152 -137 -180 -277 -12 -62 -18 -76 -31 -73 -9
3 -44 10 -79 16 l-63 11 -50 -42 c-27 -23 -48 -43 -46 -46 3 -2 58 -14 123
-26 l119 -23 3 -92 3 -92 54 0 55 0 0 81 0 82 43 -7 c23 -4 93 -16 155 -28 95
-18 112 -24 106 -37 -3 -9 -8 -52 -11 -96 -4 -70 -2 -86 19 -124 33 -64 86
-103 146 -109 162 -15 279 148 213 295 -25 54 -84 96 -166 118 -36 10 -65 22
-65 28 0 5 7 37 16 71 37 142 11 261 -72 335 -77 68 -198 82 -292 35z m184
-93 c86 -39 109 -115 79 -258 -16 -77 -20 -84 -39 -79 -12 2 -87 17 -168 32
-137 26 -147 29 -143 48 2 12 9 46 15 76 16 82 60 153 112 179 53 26 90 26
144 2z m231 -487 c55 -20 83 -55 83 -106 0 -85 -105 -131 -164 -71 -33 33 -40
61 -32 124 12 87 13 88 113 53z"/>
<path d="M4496 2696 c-9 -23 -16 -44 -16 -48 0 -3 53 -25 118 -48 64 -24 118
-44 119 -44 1 -1 -63 -179 -142 -396 -79 -217 -141 -398 -139 -401 5 -8 93
-33 98 -28 7 7 316 861 316 873 0 7 -33 24 -72 38 -40 14 -116 42 -169 61
l-97 35 -16 -42z"/>
<path d="M7028 2657 c-164 -56 -277 -186 -307 -353 -12 -64 -5 -127 25 -216
l15 -47 177 61 c97 33 181 64 185 68 12 11 -14 90 -29 90 -7 0 -64 -18 -126
-40 -62 -22 -118 -38 -125 -36 -9 4 -13 28 -13 74 0 124 74 232 199 291 48 22
69 26 146 26 80 0 97 -4 157 -32 131 -62 214 -182 225 -326 13 -166 -72 -309
-227 -384 -47 -23 -68 -27 -145 -28 -83 0 -96 3 -160 34 -38 19 -74 35 -78 35
-5 1 -20 -18 -34 -41 l-25 -42 34 -21 c187 -115 443 -85 598 70 195 195 198
505 6 695 -34 33 -84 72 -112 87 -115 62 -267 75 -386 35z"/>
<path d="M4985 2548 c-3 -13 -7 -36 -8 -52 l-2 -30 120 -24 c66 -13 122 -25
123 -27 2 -2 -33 -186 -79 -410 -50 -245 -79 -409 -73 -414 5 -5 28 -12 51
-16 35 -5 42 -4 47 12 3 10 44 209 91 443 48 234 89 434 91 446 5 20 -4 23
-158 53 -90 18 -171 34 -180 37 -12 4 -19 -2 -23 -18z"/>
<path d="M6306 2471 c-3 -5 1 -91 9 -192 18 -222 18 -219 3 -219 -7 1 -83 88
-168 195 -169 212 -159 204 -252 189 l-36 -6 163 -196 163 -196 -56 -23 c-147
-59 -200 -216 -124 -366 34 -66 94 -112 167 -127 61 -13 291 -4 301 11 4 7
-45 705 -62 877 l-6 62 -49 0 c-26 0 -50 -4 -53 -9z m37 -573 c4 -35 9 -108
13 -164 l7 -101 -50 -7 c-94 -12 -178 17 -207 72 -69 134 17 260 180 262 l51
0 6 -62z"/>
<path d="M5586 2429 c-8 -58 -66 -835 -66 -876 l0 -33 53 0 53 0 36 468 c19
257 35 468 34 469 -1 1 -25 5 -53 9 l-51 6 -6 -43z"/>
</g>
</svg>
