<?xml version="1.0" standalone="no"?>
<!DOCTYPE svg PUBLIC "-//W3C//DTD SVG 20010904//EN"
 "http://www.w3.org/TR/2001/REC-SVG-20010904/DTD/svg10.dtd">
<svg version="1.0" xmlns="http://www.w3.org/2000/svg"
 width="1769.000000pt" height="858.000000pt" viewBox="0 0 1769.000000 858.000000"
 preserveAspectRatio="xMidYMid meet">

<g transform="translate(0.000000,858.000000) scale(0.100000,-0.100000)"
fill="#000000" stroke="none">
<path d="M7826 8569 c-291 -23 -581 -105 -843 -240 -100 -51 -288 -170 -365
-231 l-27 -21 -33 25 c-51 38 -98 53 -163 52 -138 -1 -245 -112 -245 -253 0
-50 29 -123 62 -159 l22 -22 -33 -43 c-279 -367 -433 -779 -472 -1266 -18
-220 9 -498 71 -736 152 -580 529 -1081 1049 -1396 l103 -62 332 332 c184 183
328 334 322 336 -247 85 -434 202 -607 383 -245 254 -376 557 -405 932 -18
232 59 551 187 775 191 337 492 574 859 680 168 48 258 58 450 52 282 -9 507
-77 734 -224 l69 -45 -725 -726 c-505 -506 -733 -740 -748 -771 -35 -70 -50
-131 -50 -206 0 -129 46 -229 151 -330 147 -142 327 -172 508 -84 61 29 137
103 945 908 483 482 898 902 922 934 98 132 112 315 34 466 -43 85 -283 310
-480 451 -416 298 -830 452 -1309 490 -148 11 -156 11 -315 -1z"/>
<path d="M1495 3494 c-306 -47 -606 -189 -850 -399 l-40 -35 1185 1 1185 0
-59 52 c-235 209 -514 336 -838 382 -132 19 -460 18 -583 -1z"/>
<path d="M5249 3495 c-315 -51 -607 -186 -845 -392 l-49 -42 1180 0 1180 -1
-25 21 c-14 11 -79 56 -145 100 -211 142 -454 248 -687 300 -121 28 -476 36
-609 14z"/>
<path d="M7885 3491 c-48 -22 -79 -54 -99 -101 -16 -38 -18 -74 -17 -227 l1
-103 1105 0 c636 0 1105 4 1105 9 0 17 -176 176 -253 229 -106 73 -266 148
-384 179 -130 34 -407 44 -548 19 -161 -27 -334 -97 -467 -187 -31 -22 -59
-39 -62 -39 -4 0 -6 15 -6 33 0 84 -44 156 -115 188 -56 26 -204 26 -260 0z"/>
<path d="M11235 3491 c-48 -22 -79 -54 -99 -101 -16 -38 -18 -74 -17 -227 l1
-103 245 0 245 0 0 138 c0 75 -5 154 -10 174 -14 50 -55 97 -105 119 -56 26
-204 26 -260 0z"/>
<path d="M12575 3491 c-50 -22 -91 -69 -105 -119 -5 -20 -10 -99 -10 -174 l0
-138 245 0 245 0 0 148 c0 121 -4 154 -19 187 -39 84 -100 115 -228 115 -64 0
-99 -6 -128 -19z"/>
<path d="M14585 3491 c-50 -22 -91 -69 -105 -119 -5 -20 -10 -99 -10 -174 l0
-138 245 0 245 0 0 148 c0 121 -4 154 -19 187 -39 84 -100 115 -228 115 -64 0
-99 -6 -128 -19z"/>
<path d="M16308 3490 c-194 -49 -365 -165 -490 -333 -32 -43 -58 -83 -58 -88
0 -5 310 -9 765 -9 421 0 765 4 765 8 0 13 -72 121 -116 174 -88 105 -232 197
-376 239 -108 32 -381 37 -490 9z"/>
<path d="M373 2803 c-242 -322 -360 -717 -338 -1133 16 -309 96 -573 248 -823
l42 -67 334 0 334 0 -100 103 c-185 190 -286 377 -340 627 -26 124 -24 391 4
515 61 263 177 463 376 651 50 47 125 108 166 135 42 28 78 53 80 55 2 2 -167
4 -375 4 l-380 0 -51 -67z"/>
<path d="M2405 2841 c47 -27 144 -97 285 -203 34 -26 80 -53 103 -59 84 -22
175 8 241 81 48 54 66 97 66 160 l0 50 -372 0 -373 0 50 -29z"/>
<path d="M4117 2798 c-225 -302 -336 -644 -337 -1041 0 -339 97 -681 266 -937
l27 -40 333 0 334 0 -73 69 c-47 46 -69 73 -62 79 6 5 546 319 1200 696 1262
728 1252 722 1276 810 13 48 6 134 -17 202 -19 57 -92 179 -126 212 l-25 22
-381 -2 -382 -3 78 -52 c42 -28 117 -89 166 -135 l89 -83 -1068 -618 c-588
-339 -1071 -615 -1073 -612 -3 2 -16 48 -29 102 -33 132 -42 356 -19 495 32
194 113 387 227 538 75 100 226 243 325 309 44 29 81 55 83 57 2 2 -167 4
-376 4 l-381 0 -55 -72z"/>
<path d="M7770 1825 l0 -1045 245 0 245 0 0 754 c0 486 4 782 11 832 23 166
99 313 227 437 l70 67 -399 0 -399 0 0 -1045z"/>
<path d="M9554 2787 c136 -139 198 -272 216 -465 6 -61 10 -415 10 -824 l0
-718 245 0 245 0 0 799 c0 515 -4 827 -11 877 -15 107 -53 234 -99 332 l-39
82 -324 0 -324 0 81 -83z"/>
<path d="M11120 1825 l0 -1045 245 0 245 0 0 1045 0 1045 -245 0 -245 0 0
-1045z"/>
<path d="M12463 1958 c3 -906 3 -914 25 -998 12 -47 30 -106 39 -133 l17 -47
289 0 c228 0 287 3 281 13 -4 6 -18 26 -30 42 -37 51 -84 154 -107 234 -20 74
-21 95 -25 939 l-3 862 -245 0 -245 0 4 -912z"/>
<path d="M14470 2048 c0 -493 -4 -851 -10 -893 -15 -106 -56 -216 -111 -300
l-49 -75 290 0 289 0 25 78 c56 180 56 170 56 1128 l0 884 -245 0 -245 0 0
-822z"/>
<path d="M15676 2862 c-2 -4 -10 -45 -17 -91 -14 -102 -7 -269 17 -361 69
-271 290 -507 564 -602 67 -23 223 -48 303 -48 227 0 456 -139 562 -341 45
-87 65 -172 65 -289 0 -113 -17 -190 -64 -283 l-34 -67 276 2 277 3 19 75 c16
61 19 112 20 270 1 173 -2 205 -22 283 -59 223 -160 390 -332 549 -198 183
-421 275 -727 297 -70 6 -142 14 -158 19 -99 30 -199 113 -242 199 -51 105
-41 264 21 356 l25 37 -274 0 c-150 0 -276 -3 -279 -8z"/>
<path d="M16851 2830 c56 -70 152 -129 210 -130 80 0 198 70 235 141 l15 29
-246 0 -246 0 32 -40z"/>
<path d="M2759 1997 c-66 -19 -103 -50 -128 -107 -22 -50 -22 -58 -21 -565 0
-456 -1 -515 -16 -529 -14 -15 7 -16 245 -16 l261 0 0 523 c0 328 -4 536 -10
559 -14 49 -53 94 -103 119 -50 26 -165 34 -228 16z"/>
<path d="M6767 1246 c-65 -24 -104 -63 -207 -205 -55 -76 -129 -166 -165 -200
l-66 -61 338 2 338 3 40 70 c34 60 40 79 43 142 6 111 -35 180 -139 233 -51
27 -134 34 -182 16z"/>
<path d="M15631 1053 c-58 -21 -136 -98 -150 -149 -6 -22 -11 -58 -11 -81 l0
-43 276 0 c152 0 274 3 272 8 -39 88 -108 199 -141 227 -65 56 -155 70 -246
38z"/>
<path d="M560 504 c389 -398 990 -581 1536 -469 329 69 709 236 866 383 46 42
108 121 108 137 0 3 -208 4 -462 2 -436 -3 -468 -5 -548 -25 -168 -43 -401
-40 -592 9 -70 17 -114 19 -519 19 l-443 0 54 -56z"/>
<path d="M4260 552 c0 -11 139 -137 230 -206 575 -444 1409 -459 2041 -37 105
71 289 224 289 242 0 6 -173 8 -457 7 -447 -3 -460 -4 -553 -27 -83 -22 -117
-25 -275 -25 -158 0 -192 3 -275 25 -93 23 -106 24 -547 27 -249 1 -453 -1
-453 -6z"/>
<path d="M7770 362 c0 -197 0 -199 28 -252 22 -44 36 -59 77 -80 42 -21 63
-25 140 -25 101 1 152 20 198 75 40 47 47 90 47 293 l0 187 -245 0 -245 0 0
-198z"/>
<path d="M9780 362 c0 -197 0 -199 28 -252 22 -44 36 -59 77 -80 42 -21 63
-25 140 -25 101 1 152 20 198 75 40 47 47 90 47 293 l0 187 -245 0 -245 0 0
-198z"/>
<path d="M11120 362 c0 -197 0 -199 28 -252 22 -44 36 -59 77 -80 42 -21 63
-25 140 -25 101 1 152 20 198 75 40 47 47 90 47 293 l0 187 -245 0 -245 0 0
-198z"/>
<path d="M12670 554 c0 -15 105 -136 182 -209 172 -166 383 -277 607 -319 415
-79 829 41 1121 325 61 59 170 188 170 201 0 4 -166 8 -368 8 -337 0 -374 -2
-424 -19 -141 -48 -320 -52 -453 -9 -67 21 -88 22 -452 25 -211 2 -383 1 -383
-3z"/>
<path d="M15581 538 c28 -54 115 -161 181 -223 239 -226 572 -340 892 -307
158 17 254 43 381 106 177 87 328 215 436 369 l50 72 -350 3 -350 2 -78 -27
c-69 -24 -93 -27 -203 -27 -110 0 -134 3 -203 27 l-77 27 -346 0 -345 0 12
-22z"/>
</g>
</svg>
