<?xml version="1.0" standalone="no"?>
<!DOCTYPE svg PUBLIC "-//W3C//DTD SVG 20010904//EN"
 "http://www.w3.org/TR/2001/REC-SVG-20010904/DTD/svg10.dtd">
<svg version="1.0" xmlns="http://www.w3.org/2000/svg"
 width="2126.000000pt" height="274.000000pt" viewBox="0 0 2126.000000 274.000000"
 preserveAspectRatio="xMidYMid meet">

<g transform="translate(0.000000,274.000000) scale(0.100000,-0.100000)"
fill="#000000" stroke="none">
<path d="M4570 2730 c-233 -22 -491 -123 -657 -256 l-42 -34 -37 25 c-129 87
-284 -78 -193 -206 l20 -28 -36 -46 c-246 -323 -326 -813 -198 -1218 90 -287
292 -556 540 -721 57 -37 107 -66 113 -64 10 3 391 380 387 383 -1 1 -25 10
-53 19 -77 25 -209 111 -284 185 -113 112 -187 238 -232 398 -31 112 -32 304
0 420 28 106 61 178 117 264 125 187 323 319 545 364 102 21 280 16 375 -10
68 -19 210 -83 256 -116 l31 -22 -426 -426 c-464 -465 -466 -467 -466 -576 0
-189 203 -324 370 -248 34 16 177 153 587 564 540 542 541 544 559 604 21 76
9 160 -34 220 -75 103 -355 316 -515 390 -235 108 -494 157 -727 135z"/>
<path d="M11690 2041 c-87 -19 -158 -44 -233 -82 -60 -31 -170 -106 -197 -134
l-23 -25 689 0 689 1 -40 35 c-94 84 -213 149 -351 190 -79 24 -109 27 -269
30 -149 3 -195 1 -265 -15z"/>
<path d="M13901 2045 c-93 -21 -156 -43 -242 -86 -63 -31 -183 -112 -223 -150
-6 -5 274 -9 680 -9 l689 1 -30 25 c-49 41 -188 122 -266 155 -137 58 -244 79
-403 78 -80 0 -169 -7 -205 -14z"/>
<path d="M15478 2031 c-33 -29 -33 -31 -36 -130 l-4 -101 653 0 653 0 -39 41
c-89 92 -220 168 -343 200 -95 24 -280 26 -367 4 -65 -17 -189 -72 -235 -105
l-28 -20 -7 37 c-14 78 -51 103 -150 103 -57 0 -68 -3 -97 -29z"/>
<path d="M17438 2031 c-33 -29 -33 -31 -36 -130 l-4 -101 146 0 146 0 0 73 c0
148 -32 187 -152 187 -61 0 -71 -3 -100 -29z"/>
<path d="M18228 2031 c-33 -29 -33 -31 -36 -130 l-4 -101 146 0 146 0 0 73 c0
148 -32 187 -152 187 -61 0 -71 -3 -100 -29z"/>
<path d="M19408 2031 c-33 -29 -33 -31 -36 -130 l-4 -101 146 0 146 0 0 73 c0
148 -32 187 -152 187 -61 0 -71 -3 -100 -29z"/>
<path d="M20418 2041 c-31 -10 -78 -31 -103 -45 -54 -32 -148 -123 -170 -166
l-16 -30 450 0 450 0 -20 34 c-57 97 -154 174 -260 207 -82 26 -250 25 -331 0z"/>
<path d="M11087 1642 c-150 -204 -219 -474 -188 -732 17 -139 39 -212 101
-335 l55 -110 199 -3 198 -2 -68 73 c-117 126 -171 241 -195 411 -21 151 15
328 96 464 47 80 136 175 218 233 l70 49 -226 0 -225 0 -35 -48z"/>
<path d="M12331 1639 c41 -28 85 -61 99 -74 35 -32 84 -55 117 -55 70 0 143
72 143 141 l0 39 -217 0 -217 0 75 -51z"/>
<path d="M13289 1648 c-86 -119 -145 -246 -176 -379 -26 -112 -23 -387 5 -491
26 -94 73 -208 112 -271 l30 -47 192 0 192 0 -39 40 c-21 22 -37 42 -34 44 2
3 317 186 699 406 382 221 709 415 725 431 27 26 30 36 30 92 0 49 -6 74 -29
119 -52 103 -39 99 -297 96 l-224 -3 50 -32 c28 -18 72 -54 99 -81 l48 -50
-43 -25 c-587 -342 -1205 -695 -1211 -689 -13 14 -38 162 -38 226 0 78 21 191
49 267 45 118 165 268 277 345 30 21 54 39 54 41 0 1 -99 3 -220 3 l-220 0
-31 -42z"/>
<path d="M15440 1075 l0 -615 145 0 145 0 0 469 c0 441 1 473 20 534 21 66 92
175 130 199 11 7 20 16 20 20 0 5 -103 8 -230 8 l-230 0 0 -615z"/>
<path d="M16492 1632 c123 -128 128 -157 128 -724 l0 -448 146 0 145 0 -4 503
c-4 545 -4 547 -64 673 l-25 54 -191 0 -190 0 55 -58z"/>
<path d="M17400 1075 l0 -615 145 0 145 0 0 615 0 615 -145 0 -145 0 0 -615z"/>
<path d="M18190 1164 c0 -448 2 -536 16 -597 26 -116 10 -107 199 -107 91 0
165 2 165 5 0 2 -11 21 -25 41 -14 20 -34 66 -45 102 -19 60 -20 93 -20 573
l0 509 -145 0 -145 0 0 -526z"/>
<path d="M19368 1168 c-3 -513 -3 -524 -25 -577 -12 -29 -34 -71 -48 -92 l-25
-39 169 0 170 0 16 53 c30 101 35 186 35 680 l0 497 -145 0 -144 0 -3 -522z"/>
<path d="M20076 1664 c-11 -42 -8 -196 4 -249 24 -106 109 -226 206 -290 84
-56 143 -75 281 -90 192 -21 290 -80 355 -213 30 -60 33 -75 33 -157 0 -77 -4
-98 -27 -148 l-27 -57 162 2 162 3 13 60 c18 85 10 262 -17 345 -29 93 -86
184 -162 259 -120 120 -242 175 -423 192 -121 12 -154 22 -204 64 -71 60 -93
172 -52 263 l19 42 -158 0 -159 0 -6 -26z"/>
<path d="M20797 1640 c45 -44 57 -50 93 -50 47 0 73 11 113 48 50 48 41 52
-115 52 l-143 0 52 -50z"/>
<path d="M12473 1166 c-67 -30 -68 -35 -71 -388 l-3 -318 145 0 146 0 0 315
c0 333 -2 351 -48 381 -34 22 -129 28 -169 10z"/>
<path d="M14820 719 c-19 -11 -53 -46 -75 -76 -22 -31 -66 -85 -99 -120 l-59
-63 199 2 198 3 23 40 c47 83 21 179 -60 215 -54 25 -83 25 -127 -1z"/>
<path d="M20043 611 c-49 -23 -83 -71 -83 -118 l0 -33 161 0 160 0 -33 62
c-18 34 -45 70 -59 81 -39 28 -96 31 -146 8z"/>
<path d="M11196 299 c94 -99 310 -225 449 -262 96 -26 242 -40 334 -32 156 12
382 84 529 168 69 39 162 123 162 147 0 7 -85 10 -256 10 -207 0 -268 -3 -318
-17 -82 -22 -259 -22 -349 0 -55 14 -118 17 -324 17 l-257 0 30 -31z"/>
<path d="M13401 294 c57 -61 187 -152 274 -194 326 -155 736 -122 1032 85 76
54 163 127 163 138 0 4 -115 7 -256 7 -208 0 -268 -3 -318 -17 -83 -22 -269
-22 -354 0 -52 14 -111 17 -320 17 l-256 0 35 -36z"/>
<path d="M15440 209 c0 -143 11 -170 77 -195 51 -20 125 -13 163 14 37 28 49
74 49 195 l1 107 -145 0 -145 0 0 -121z"/>
<path d="M16620 209 c0 -143 11 -170 77 -195 51 -20 125 -13 163 14 37 28 49
74 49 195 l1 107 -145 0 -145 0 0 -121z"/>
<path d="M17400 209 c0 -143 11 -170 77 -195 51 -20 125 -13 163 14 37 28 49
74 49 195 l1 107 -145 0 -145 0 0 -121z"/>
<path d="M18321 313 c94 -122 170 -185 296 -245 207 -98 480 -84 681 34 57 33
232 197 232 217 0 8 -67 11 -214 11 -173 0 -222 -3 -257 -16 -60 -23 -209 -23
-269 -1 -37 14 -86 17 -264 17 -207 0 -218 -1 -205 -17z"/>
<path d="M20020 324 c0 -4 16 -28 36 -55 53 -72 138 -143 223 -188 117 -61
178 -75 311 -75 138 0 227 23 335 87 72 42 186 150 218 205 l18 32 -204 0
c-166 0 -213 -3 -248 -17 -59 -22 -191 -22 -243 0 -32 14 -75 17 -242 17 -112
0 -204 -3 -204 -6z"/>
</g>
</svg>
