<?xml version="1.0" standalone="no"?>
<!DOCTYPE svg PUBLIC "-//W3C//DTD SVG 20010904//EN"
 "http://www.w3.org/TR/2001/REC-SVG-20010904/DTD/svg10.dtd">
<svg version="1.0" xmlns="http://www.w3.org/2000/svg"
 width="2126.000000pt" height="2126.000000pt" viewBox="0 0 2126.000000 2126.000000"
 preserveAspectRatio="xMidYMid meet">

<g transform="translate(0.000000,2126.000000) scale(0.100000,-0.100000)"
fill="#000000" stroke="none">
<path d="M9955 21243 c-284 -16 -422 -26 -545 -39 -1925 -193 -3704 -908
-5257 -2111 -95 -73 -174 -133 -175 -133 -2 0 -30 25 -63 56 -166 156 -383
265 -605 305 -105 19 -316 16 -418 -5 -406 -85 -729 -362 -866 -744 -52 -145
-61 -204 -61 -392 0 -188 9 -247 61 -392 54 -151 135 -282 252 -409 l60 -65
-35 -45 c-20 -24 -110 -143 -200 -263 -836 -1113 -1457 -2431 -1793 -3801
-125 -509 -219 -1079 -264 -1590 -55 -625 -55 -1273 0 -1900 187 -2143 1035
-4197 2414 -5848 398 -477 897 -976 1362 -1364 523 -436 1076 -815 1660 -1139
93 -52 173 -94 177 -94 9 0 3056 3049 3051 3052 -3 2 -84 29 -181 61 -1151
381 -2198 1097 -2990 2047 -1152 1381 -1690 3178 -1488 4975 132 1183 570
2282 1289 3240 502 668 1148 1253 1865 1687 1769 1072 3955 1250 5885 481 475
-190 1004 -478 1369 -746 l53 -39 -3249 -3252 c-2197 -2197 -3270 -3278 -3312
-3334 -516 -688 -550 -1604 -87 -2312 87 -133 189 -251 362 -421 212 -207 366
-319 579 -420 630 -300 1373 -251 1955 129 58 37 146 102 195 144 151 128
8104 8092 8170 8181 166 226 284 467 345 707 153 600 34 1209 -332 1707 -136
183 -709 742 -1153 1124 -1876 1612 -4041 2608 -6279 2889 -475 59 -836 81
-1336 78 -201 -1 -387 -3 -415 -5z"/>
</g>
</svg>
