<svg data-v-fde0c5aa="" xmlns="http://www.w3.org/2000/svg" viewBox="0 0 300 300" class="font"><!----><defs data-v-fde0c5aa=""><!----></defs><rect data-v-fde0c5aa="" fill="#161C60" x="0" y="0" width="300px" height="300px" class="logo-background-square"></rect><defs data-v-fde0c5aa=""><!----></defs><g data-v-fde0c5aa="" id="8c8c7ee1-1406-422a-99d0-f0bce8a7a4c0" fill="#25BDD6" transform="matrix(3.0713386151504873,0,0,3.0713386151504873,37.85006300600787,129.57559864860778)"><path d="M0.70 11.97L0.70 11.97L0.70 1.33L0.70 1.33Q0.70 1.05 0.98 1.05L0.98 1.05L2.83 1.05L2.83 1.05Q3.08 1.05 3.14 1.30L3.14 1.30L4.69 8.27L6.24 1.30L6.24 1.30Q6.30 1.05 6.55 1.05L6.55 1.05L8.40 1.05L8.40 1.05Q8.68 1.05 8.68 1.33L8.68 1.33L8.68 11.97L8.68 11.97Q8.68 12.25 8.40 12.25L8.40 12.25L7.10 12.25L7.10 12.25Q6.82 12.25 6.82 11.97L6.82 11.97L6.82 5.67L6.72 5.67L5.33 12.00L5.33 12.00Q5.27 12.25 5.02 12.25L5.02 12.25L4.34 12.25L4.34 12.25Q4.09 12.25 4.03 12.00L4.03 12.00L2.65 5.67L2.55 5.67L2.55 11.97L2.55 11.97Q2.55 12.25 2.27 12.25L2.27 12.25L0.98 12.25L0.98 12.25Q0.70 12.25 0.70 11.97ZM10.08 12.02L10.08 12.02L10.08 2.67L10.08 2.67Q10.08 2.57 10.13 2.51L10.13 2.51L10.13 2.51Q10.19 2.45 10.29 2.45L10.29 2.45L15.44 2.45L15.44 2.45Q15.67 2.45 15.67 2.67L15.67 2.67L15.67 4.07L15.67 4.07Q15.67 4.31 15.44 4.31L15.44 4.31L11.98 4.31L11.98 6.47L14.62 6.47L14.62 6.47Q14.84 6.47 14.84 6.71L14.84 6.71L14.84 8.09L14.84 8.09Q14.84 8.33 14.62 8.33L14.62 8.33L11.98 8.33L11.98 10.40L15.44 10.40L15.44 10.40Q15.57 10.40 15.62 10.45L15.62 10.45L15.62 10.45Q15.67 10.50 15.67 10.62L15.67 10.62L15.67 12.02L15.67 12.02Q15.67 12.25 15.44 12.25L15.44 12.25L10.29 12.25L10.29 12.25Q10.19 12.25 10.13 12.19L10.13 12.19L10.13 12.19Q10.08 12.13 10.08 12.02ZM17.06 12.02L17.06 12.02L17.06 2.67L17.06 2.67Q17.06 2.57 17.12 2.51L17.12 2.51L17.12 2.51Q17.18 2.45 17.28 2.45L17.28 2.45L18.39 2.45L18.39 2.45Q18.56 2.45 18.64 2.63L18.64 2.63L21.27 7.98L21.27 2.67L21.27 2.67Q21.27 2.45 21.50 2.45L21.50 2.45L22.81 2.45L22.81 2.45Q22.91 2.45 22.98 2.51L22.98 2.51L22.98 2.51Q23.04 2.57 23.04 2.67L23.04 2.67L23.04 12.02L23.04 12.02Q23.04 12.13 22.98 12.19L22.98 12.19L22.98 12.19Q22.91 12.25 22.81 12.25L22.81 12.25L21.70 12.25L21.70 12.25Q21.53 12.25 21.45 12.07L21.45 12.07L18.82 6.72L18.82 12.02L18.82 12.02Q18.82 12.25 18.60 12.25L18.60 12.25L17.28 12.25L17.28 12.25Q17.18 12.25 17.12 12.19L17.12 12.19L17.12 12.19Q17.06 12.13 17.06 12.02ZM24.43 10.23L24.43 10.23L24.43 2.73L24.43 2.73Q24.43 2.61 24.51 2.53L24.51 2.53L24.51 2.53Q24.60 2.45 24.71 2.45L24.71 2.45L26.06 2.45L26.06 2.45Q26.17 2.45 26.26 2.53L26.26 2.53L26.26 2.53Q26.34 2.61 26.34 2.73L26.34 2.73L26.34 9.84L26.34 9.84Q26.34 10.40 26.90 10.40L26.90 10.40L27.62 10.40L27.62 10.40Q28.18 10.40 28.18 9.84L28.18 9.84L28.18 2.73L28.18 2.73Q28.18 2.61 28.27 2.53L28.27 2.53L28.27 2.53Q28.35 2.45 28.46 2.45L28.46 2.45L29.76 2.45L29.76 2.45Q29.87 2.45 29.96 2.53L29.96 2.53L29.96 2.53Q30.04 2.61 30.04 2.73L30.04 2.73L30.04 10.23L30.04 10.23Q30.04 11.22 29.52 11.74L29.52 11.74L29.52 11.74Q29.01 12.25 28.02 12.25L28.02 12.25L26.45 12.25L26.45 12.25Q25.46 12.25 24.94 11.74L24.94 11.74L24.94 11.74Q24.43 11.22 24.43 10.23ZM34.93 10.23L34.93 10.23L34.93 3.07L34.93 3.07Q34.93 2.08 35.44 1.57L35.44 1.57L35.44 1.57Q35.96 1.05 36.95 1.05L36.95 1.05L38.80 1.05L38.80 1.05Q39.78 1.05 40.30 1.57L40.30 1.57L40.30 1.57Q40.82 2.08 40.82 3.07L40.82 3.07L40.82 4.53L40.82 4.53Q40.82 4.74 40.59 4.74L40.59 4.74L39.19 4.74L39.19 4.74Q38.96 4.74 38.96 4.53L38.96 4.53L38.96 3.46L38.96 3.46Q38.96 2.90 38.40 2.90L38.40 2.90L37.40 2.90L37.40 2.90Q36.84 2.90 36.84 3.46L36.84 3.46L36.84 9.84L36.84 9.84Q36.84 10.40 37.40 10.40L37.40 10.40L38.40 10.40L38.40 10.40Q38.96 10.40 38.96 9.84L38.96 9.84L38.96 7.96L38.24 7.96L38.24 7.96Q38.01 7.96 38.01 7.75L38.01 7.75L38.01 6.34L38.01 6.34Q38.01 6.12 38.24 6.12L38.24 6.12L40.59 6.12L40.59 6.12Q40.82 6.12 40.82 6.34L40.82 6.34L40.82 10.23L40.82 10.23Q40.82 11.22 40.30 11.73L40.30 11.73L40.30 11.73Q39.78 12.25 38.80 12.25L38.80 12.25L36.95 12.25L36.95 12.25Q35.96 12.25 35.44 11.74L35.44 11.74L35.44 11.74Q34.93 11.22 34.93 10.23ZM42.21 12.02L42.21 12.02L42.21 2.67L42.21 2.67Q42.21 2.57 42.26 2.51L42.26 2.51L42.26 2.51Q42.32 2.45 42.42 2.45L42.42 2.45L47.57 2.45L47.57 2.45Q47.80 2.45 47.80 2.67L47.80 2.67L47.80 4.07L47.80 4.07Q47.80 4.31 47.57 4.31L47.57 4.31L44.11 4.31L44.11 6.47L46.74 6.47L46.74 6.47Q46.97 6.47 46.97 6.71L46.97 6.71L46.97 8.09L46.97 8.09Q46.97 8.33 46.74 8.33L46.74 8.33L44.11 8.33L44.11 10.40L47.57 10.40L47.57 10.40Q47.70 10.40 47.75 10.45L47.75 10.45L47.75 10.45Q47.80 10.50 47.80 10.62L47.80 10.62L47.80 12.02L47.80 12.02Q47.80 12.25 47.57 12.25L47.57 12.25L42.42 12.25L42.42 12.25Q42.32 12.25 42.26 12.19L42.26 12.19L42.26 12.19Q42.21 12.13 42.21 12.02ZM49.18 12.02L49.18 12.02L49.18 2.67L49.18 2.67Q49.18 2.57 49.25 2.51L49.25 2.51L49.25 2.51Q49.31 2.45 49.41 2.45L49.41 2.45L50.52 2.45L50.52 2.45Q50.69 2.45 50.77 2.63L50.77 2.63L53.40 7.98L53.40 2.67L53.40 2.67Q53.40 2.45 53.63 2.45L53.63 2.45L54.94 2.45L54.94 2.45Q55.04 2.45 55.10 2.51L55.10 2.51L55.10 2.51Q55.17 2.57 55.17 2.67L55.17 2.67L55.17 12.02L55.17 12.02Q55.17 12.13 55.10 12.19L55.10 12.19L55.10 12.19Q55.04 12.25 54.94 12.25L54.94 12.25L53.83 12.25L53.83 12.25Q53.66 12.25 53.58 12.07L53.58 12.07L50.95 6.72L50.95 12.02L50.95 12.02Q50.95 12.25 50.73 12.25L50.73 12.25L49.41 12.25L49.41 12.25Q49.31 12.25 49.25 12.19L49.25 12.19L49.25 12.19Q49.18 12.13 49.18 12.02ZM56.56 2.67L56.56 12.02L56.56 12.02Q56.56 12.25 56.79 12.25L56.79 12.25L58.24 12.25L58.24 12.25Q58.34 12.25 58.41 12.19L58.41 12.19L58.41 12.19Q58.47 12.13 58.47 12.02L58.47 12.02L58.47 2.67L58.47 2.67Q58.47 2.57 58.41 2.51L58.41 2.51L58.41 2.51Q58.34 2.45 58.24 2.45L58.24 2.45L56.79 2.45L56.79 2.45Q56.56 2.45 56.56 2.67L56.56 2.67ZM59.86 10.23L59.86 10.23L59.86 2.73L59.86 2.73Q59.86 2.61 59.94 2.53L59.94 2.53L59.94 2.53Q60.03 2.45 60.14 2.45L60.14 2.45L61.49 2.45L61.49 2.45Q61.61 2.45 61.69 2.53L61.69 2.53L61.69 2.53Q61.77 2.61 61.77 2.73L61.77 2.73L61.77 9.84L61.77 9.84Q61.77 10.40 62.33 10.40L62.33 10.40L63.05 10.40L63.05 10.40Q63.62 10.40 63.62 9.84L63.62 9.84L63.62 2.73L63.62 2.73Q63.62 2.61 63.70 2.53L63.70 2.53L63.70 2.53Q63.78 2.45 63.90 2.45L63.90 2.45L65.19 2.45L65.19 2.45Q65.30 2.45 65.39 2.53L65.39 2.53L65.39 2.53Q65.47 2.61 65.47 2.73L65.47 2.73L65.47 10.23L65.47 10.23Q65.47 11.22 64.96 11.74L64.96 11.74L64.96 11.74Q64.44 12.25 63.45 12.25L63.45 12.25L61.88 12.25L61.88 12.25Q60.89 12.25 60.38 11.74L60.38 11.74L60.38 11.74Q59.86 11.22 59.86 10.23ZM66.73 10.23L66.73 10.23L66.73 9.32L66.73 9.32Q66.73 9.10 66.95 9.10L66.95 9.10L68.37 9.10L68.37 9.10Q68.59 9.10 68.59 9.32L68.59 9.32L68.59 9.91L68.59 9.91Q68.59 10.47 69.15 10.47L69.15 10.47L69.90 10.47L69.90 10.47Q70.46 10.47 70.46 9.91L70.46 9.91L70.46 8.50L67.11 7.40L67.11 7.40Q66.73 7.28 66.73 6.89L66.73 6.89L66.73 4.46L66.73 4.46Q66.73 3.48 67.25 2.96L67.25 2.96L67.25 2.96Q67.76 2.45 68.74 2.45L68.74 2.45L70.31 2.45L70.31 2.45Q71.31 2.45 71.82 2.96L71.82 2.96L71.82 2.96Q72.33 3.47 72.33 4.46L72.33 4.46L72.33 5.39L72.33 5.39Q72.33 5.61 72.11 5.61L72.11 5.61L70.69 5.61L70.69 5.61Q70.59 5.61 70.53 5.55L70.53 5.55L70.53 5.55Q70.46 5.49 70.46 5.39L70.46 5.39L70.46 4.80L70.46 4.80Q70.46 4.25 69.90 4.25L69.90 4.25L69.14 4.25L69.14 4.25Q68.87 4.25 68.73 4.39L68.73 4.39L68.73 4.39Q68.58 4.53 68.58 4.80L68.58 4.80L68.58 6.00L71.96 7.08L71.96 7.08Q72.33 7.21 72.33 7.60L72.33 7.60L72.33 10.23L72.33 10.23Q72.33 11.22 71.82 11.74L71.82 11.74L71.82 11.74Q71.31 12.25 70.31 12.25L70.31 12.25L68.74 12.25L68.74 12.25Q67.76 12.25 67.25 11.73L67.25 11.73L67.25 11.73Q66.73 11.22 66.73 10.23Z"></path></g><!----><!----></svg>